<?xml version="1.0" standalone="no"?>
<!DOCTYPE svg PUBLIC "-//W3C//DTD SVG 20010904//EN"
 "http://www.w3.org/TR/2001/REC-SVG-20010904/DTD/svg10.dtd">
<svg version="1.0" xmlns="http://www.w3.org/2000/svg"
 width="512.000000pt" height="512.000000pt" viewBox="0 0 512.000000 512.000000"
 preserveAspectRatio="xMidYMid meet">
<metadata>
Created by potrace 1.14, written by Peter Selinger 2001-2017
</metadata>
<g transform="translate(0.000000,512.000000) scale(0.100000,-0.100000)"
fill="#000000" stroke="none">
<path d="M1449 5116 c-2 -2 -29 -7 -60 -10 -79 -9 -225 -43 -294 -68 -269 -96
-459 -216 -644 -407 -205 -210 -368 -516 -417 -781 -32 -173 -32 -195 -30
-1320 1 -619 4 -1134 8 -1145 3 -11 9 -40 13 -65 36 -228 147 -482 300 -685
105 -139 290 -311 412 -381 26 -15 50 -31 53 -35 3 -4 52 -29 110 -57 172 -82
340 -131 515 -151 91 -11 2278 -8 2340 3 428 74 792 292 1044 626 146 194 242
412 294 664 l22 111 0 1130 c0 622 -4 1155 -9 1185 -4 30 -9 65 -11 77 -17
119 -80 301 -157 450 -230 449 -652 754 -1166 843 -100 17 -182 19 -1213 19
-608 0 -1108 -1 -1110 -3z"/>
</g>
</svg>
