<svg width="255" height="73" viewBox="0 0 255 73" fill="none" xmlns="http://www.w3.org/2000/svg">
<path d="M226.434 55.505C214.51 55.505 207.124 48.3295 207.124 39.0435C207.124 28.9133 214.194 21.6322 228.967 21.6322H241.63V20.4714C241.63 14.6677 237.725 10.6578 231.921 10.6578C225.907 10.6578 222.635 13.929 221.897 16.9892H209.234C210.078 8.54735 217.676 0 231.921 0C245.85 0 254.609 8.44183 254.609 20.4714V54.4498H243.423L242.368 49.1737H241.841C239.836 51.9173 234.243 55.505 226.434 55.505ZM228.65 44.9527C236.776 44.9527 241.63 40.2042 241.63 32.6066V30.9182H230.339C223.163 30.9182 220.208 33.9784 220.208 38.0938C220.208 42.3147 223.163 44.9527 228.65 44.9527Z" fill="#1A56DB"/>
<path fill-rule="evenodd" clip-rule="evenodd" d="M193.578 1.05519L181.127 38.0937H179.016L165.087 1.05519H151.369L173.342 57.137L169.772 67.3619L181.149 72.1034L207.296 1.05519H193.578Z" fill="#1A56DB"/>
<path d="M121.306 55.505C109.382 55.505 101.995 48.3295 101.995 39.0435C101.995 28.9133 109.066 21.6322 123.839 21.6322H136.501V20.4714C136.501 14.6677 132.597 10.6578 126.793 10.6578C120.779 10.6578 117.507 13.929 116.769 16.9892H104.106C104.95 8.54735 112.548 0 126.793 0C140.722 0 149.481 8.44183 149.481 20.4714V54.4498H138.295L137.24 49.1737H136.713C134.708 51.9173 129.115 55.505 121.306 55.505ZM123.522 44.9527C131.647 44.9527 136.501 40.2042 136.501 32.6066V30.9182H125.211C118.035 30.9182 115.08 33.9784 115.08 38.0938C115.08 42.3147 118.035 44.9527 123.522 44.9527Z" fill="#1A56DB"/>
<path d="M66.1601 54.4498H53.2863V1.04771H66.1601V25.0089L86.315 1.05523H101.405L79.1394 27.2249L102.46 54.4498H87.3702L66.1601 29.3354V54.4498Z" fill="#1A56DB"/>
<path d="M23.215 55.505C6.33137 55.505 0 45.0583 0 38.1993H12.6627C12.6627 41.6815 16.0395 45.1638 23.215 45.1638C30.1795 45.1638 33.2397 42.3147 33.2397 39.36C33.2397 36.1943 31.4458 34.2949 25.9586 33.3452L17.6223 31.9734C6.43689 30.074 0.527614 25.0089 0.527614 16.356C0.527614 7.49212 7.91421 0 22.6874 0C37.5661 0 45.2693 9.18049 45.2693 16.9892H32.7121C32.7121 13.5069 29.0188 10.3412 22.6874 10.3412C16.356 10.3412 13.4014 13.2959 13.4014 16.2505C13.4014 18.8886 15.4063 20.6825 20.3659 21.5267L29.0188 22.8985C40.4152 24.6923 46.008 30.1795 46.008 39.149C46.008 48.0129 38.5158 55.505 23.215 55.505Z" fill="#1A56DB"/>
</svg>
